HIERARCHY
ROOT Hips
{
	OFFSET 0.000000 0.000000 0.000000
	CHANNELS 6 Xposition Yposition Zposition Zrotation Yrotation Xrotation 
	JOINT LHipJoint
	{
		OFFSET 0.000000 0.000000 0.000000
		CHANNELS 3 Zrotation Yrotation Xrotation
		JOINT LeftUpLeg
		{
			OFFSET 1.363060 -1.794630 0.839290
			CHANNELS 3 Zrotation Yrotation Xrotation
			JOINT LeftLeg
			{
				OFFSET 2.448110 -6.726130 0.000000
				CHANNELS 3 Zrotation Yrotation Xrotation
				JOINT LeftFoot
				{
					OFFSET 2.562200 -7.039590 0.000000
					CHANNELS 3 Zrotation Yrotation Xrotation
					JOINT LeftToeBase
					{
						OFFSET 0.157640 -0.433110 2.322550
						CHANNELS 3 Zrotation Yrotation Xrotation
						End Site
						{
							OFFSET 0.000000 0.000000 0.000000
						}
					}
				}
			}
		}
	}
	JOINT RHipJoint
	{
		OFFSET 0.000000 0.000000 0.000000
		CHANNELS 3 Zrotation Yrotation Xrotation
		JOINT RightUpLeg
		{
			OFFSET -1.305520 -1.794630 0.839290
			CHANNELS 3 Zrotation Yrotation Xrotation
			JOINT RightLeg
			{
				OFFSET -2.542530 -6.985550 0.000000
				CHANNELS 3 Zrotation Yrotation Xrotation
				JOINT RightFoot
				{
					OFFSET -2.568260 -7.056230 0.000000
					CHANNELS 3 Zrotation Yrotation Xrotation
					JOINT RightToeBase
					{
						OFFSET -0.164730 -0.452590 2.363150
						CHANNELS 3 Zrotation Yrotation Xrotation
						End Site
						{
							OFFSET 0.000000 0.000000 0.000000
						}
					}
				}
			}
		}
	}
	JOINT LowerBack
	{
		OFFSET 0.000000 0.000000 0.000000
		CHANNELS 3 Zrotation Yrotation Xrotation
		JOINT Spine
		{
			OFFSET 0.028270 2.035590 -0.193380
			CHANNELS 3 Zrotation Yrotation Xrotation
			JOINT Spine1
			{
				OFFSET 0.056720 2.048850 -0.042750
				CHANNELS 3 Zrotation Yrotation Xrotation
				JOINT Neck
				{
					OFFSET 0.000000 0.000000 0.000000
					CHANNELS 3 Zrotation Yrotation Xrotation
					JOINT Neck1
					{
						OFFSET -0.054170 1.746240 0.172020
						CHANNELS 3 Zrotation Yrotation Xrotation
						JOINT Head
						{
							OFFSET 0.104070 1.761360 -0.123970
							CHANNELS 3 Zrotation Yrotation Xrotation
							End Site
							{
								OFFSET 0.000000 0.000000 0.000000
							}
						}
					}
				}
				JOINT LeftShoulder
				{
					OFFSET 0.000000 0.000000 0.000000
					CHANNELS 3 Zrotation Yrotation Xrotation
					JOINT LeftArm
					{
						OFFSET 3.362410 1.200890 -0.311210
						CHANNELS 3 Zrotation Yrotation Xrotation
						JOINT LeftForeArm
						{
							OFFSET 4.983000 -0.000000 -0.000000
							CHANNELS 3 Zrotation Yrotation Xrotation
							JOINT LeftHand
							{
								OFFSET 3.483560 -0.000000 -0.000000
								CHANNELS 3 Zrotation Yrotation Xrotation
								JOINT LeftFingerBase
								{
									OFFSET 0.000000 0.000000 0.000000
									CHANNELS 3 Zrotation Yrotation Xrotation
									JOINT LeftHandIndex1
									{
										OFFSET 0.715260 -0.000000 -0.000000
										CHANNELS 3 Zrotation Yrotation Xrotation
										End Site
										{
											OFFSET 0.000000 0.000000 0.000000
										}
									}
								}
								JOINT LThumb
								{
									OFFSET 0.000000 0.000000 0.000000
									CHANNELS 3 Zrotation Yrotation Xrotation
									End Site
									{
										OFFSET 0.000000 0.000000 0.000000
									}
								}
							}
						}
					}
				}
				JOINT RightShoulder
				{
					OFFSET 0.000000 0.000000 0.000000
					CHANNELS 3 Zrotation Yrotation Xrotation
					JOINT RightArm
					{
						OFFSET -3.136600 1.374050 -0.404650
						CHANNELS 3 Zrotation Yrotation Xrotation
						JOINT RightForeArm
						{
							OFFSET -5.241900 -0.000000 -0.000000
							CHANNELS 3 Zrotation Yrotation Xrotation
							JOINT RightHand
							{
								OFFSET -3.444170 -0.000000 -0.000000
								CHANNELS 3 Zrotation Yrotation Xrotation
								JOINT RightFingerBase
								{
									OFFSET 0.000000 0.000000 0.000000
									CHANNELS 3 Zrotation Yrotation Xrotation
									JOINT RightHandIndex1
									{
										OFFSET -0.622530 -0.000000 -0.000000
										CHANNELS 3 Zrotation Yrotation Xrotation
										End Site
										{
											OFFSET 0.000000 0.000000 0.000000
										}
									}
								}
								JOINT RThumb
								{
									OFFSET 0.000000 0.000000 0.000000
									CHANNELS 3 Zrotation Yrotation Xrotation
									End Site
									{
										OFFSET 0.000000 0.000000 0.000000
									}
								}
							}
						}
					}
				}
			}
		}
	}
}
MOTION
Frames: 5
Frame Time: 0.008333
2.130170 17.332829 -0.528175 131.759745 -81.382971 -124.318546 -9.327767 2.410792 0.319929 -10.932435 8.020638 -11.611717 -1.601696 -0.002289 13.099216 2.522221 18.714541 2.101632 3.524300 0.000000 -42.397700 10.505321 -1.366989 2.469982 5.135944 5.682355 -9.462429 1.306895 -0.395401 15.356422 -1.859462 -6.880948 -10.592807 0.059100 -0.000000 -51.467500 -2.897121 -1.231371 -3.446535 -1.213739 -1.144047 -3.073346 -5.736377 -1.168731 2.014219 2.721687 -11.334002 -6.176041 -3.338361 -0.275309 0.321139 0.000000 0.000000 0.000000 -1.718586 14.871085 0.809377 -59.846047 6.990920 -20.221444 -2.844405 -37.053446 0.023601 20.241758 -6.658862 -1.192935 -0.132038 -0.018916 0.000000 0.000000 0.000000 0.000000 0.000000 0.000000 0.000000 7.163917 -7.488002 -3.051021 71.875112 4.060861 -4.485994 0.495841 67.897919 -0.053065 -13.426833 12.111225 -1.492630 0.152524 -0.387484 0.000000 0.000000 0.000000 0.000000 0.000000 0.000000 0.000000 
2.150181 17.327778 -0.565997 130.791247 -81.117493 -124.072938 -9.226819 2.364757 0.057817 -11.208768 8.149380 -12.230278 -1.522381 0.214773 15.440064 2.558871 18.995594 2.507517 3.688900 -0.000000 -41.713400 10.686467 -1.292815 2.167032 4.840011 5.134626 -8.788068 1.288840 -0.505947 15.868428 -1.784679 -6.514305 -10.719570 0.090300 -0.000000 -51.929299 -3.288482 -1.213930 -2.825586 -1.290297 -1.081454 -2.941188 -5.725453 -1.098568 2.038573 2.715346 -11.405258 -6.205463 -3.315667 -0.272578 0.303810 0.000000 0.000000 0.000000 -2.048062 15.496609 0.772700 -60.053940 7.450901 -20.545740 -2.865803 -36.839737 0.025671 20.364652 -6.648112 -1.197244 -0.132564 -0.024746 0.000000 0.000000 0.000000 0.000000 0.000000 0.000000 0.000000 7.132314 -7.497518 -3.108952 72.144023 3.401324 -4.210120 0.511414 68.059240 -0.051598 -13.312768 12.179898 -1.488024 0.153321 -0.385919 0.000000 0.000000 0.000000 0.000000 0.000000 0.000000 0.000000 
2.167962 17.323608 -0.601813 129.686768 -80.944805 -123.529679 -9.140346 2.306694 -0.133645 -11.440468 8.191387 -13.031849 -1.468591 0.387721 17.322240 2.543736 18.960667 3.014111 3.824000 -0.000000 -40.827800 10.848596 -1.227612 1.896178 4.593402 4.536762 -8.283183 1.280867 -0.591745 16.257054 -1.706899 -6.135378 -10.789638 0.108900 -0.000000 -52.379600 -3.630074 -1.191264 -2.318284 -1.356073 -1.020929 -2.830241 -5.711080 -1.031240 2.075627 2.707352 -11.481499 -6.241234 -3.288457 -0.269562 0.286131 0.000000 0.000000 0.000000 -2.376407 16.121617 0.732022 -60.282134 7.877984 -20.912522 -2.881227 -36.742029 0.027639 20.478472 -6.672970 -1.207746 -0.133667 -0.029758 0.000000 0.000000 0.000000 0.000000 0.000000 0.000000 0.000000 7.079282 -7.514576 -3.157730 72.365838 2.776209 -4.064013 0.526555 68.164951 -0.050351 -13.251287 12.234253 -1.487615 0.154818 -0.384301 -0.000000 0.000000 0.000000 0.000000 0.000000 0.000000 0.000000 
2.183245 17.321132 -0.636308 128.381290 -80.856097 -122.615120 -9.056726 2.236310 -0.244655 -11.645984 8.090295 -13.990402 -1.448647 0.509981 18.656587 2.481555 18.616074 3.548887 3.903100 -0.000000 -39.852100 10.996746 -1.168090 1.658327 4.384090 3.895280 -7.954042 1.279282 -0.652777 16.522810 -1.628450 -5.755148 -10.805262 0.116700 -0.000000 -52.805901 -3.936887 -1.164196 -1.933574 -1.415490 -0.962294 -2.741808 -5.697639 -0.966796 2.125803 2.708152 -11.568668 -6.281103 -3.259817 -0.266548 0.268820 0.000000 0.000000 0.000000 -2.693083 16.728299 0.687410 -60.518102 8.274686 -21.316792 -2.892768 -36.740932 0.029440 20.566720 -6.712834 -1.219641 -0.135338 -0.033960 0.000000 0.000000 0.000000 0.000000 0.000000 0.000000 0.000000 7.030385 -7.546567 -3.196307 72.540336 2.197289 -4.048801 0.542367 68.203579 -0.049305 -13.248849 12.268260 -1.491405 0.157158 -0.382466 -0.000000 0.000000 0.000000 0.000000 0.000000 0.000000 0.000000 
2.196255 17.320848 -0.669949 126.811276 -80.843726 -121.262195 -8.965889 2.152671 -0.270432 -11.838704 7.807715 -15.096954 -1.469553 0.579031 19.401189 2.377697 17.977024 4.041443 3.903400 0.000000 -38.829999 11.134813 -1.110903 1.454418 4.206611 3.221428 -7.807176 1.281114 -0.689739 16.673747 -1.552612 -5.389295 -10.772354 0.115900 -0.000000 -53.213401 -4.222014 -1.132879 -1.675440 -1.472570 -0.904799 -2.677074 -5.689468 -0.904675 2.186538 2.728322 -11.657945 -6.321347 -3.232891 -0.263834 0.252944 0.000000 0.000000 0.000000 -2.982556 17.300043 0.640738 -60.756467 8.639256 -21.761561 -2.902193 -36.814406 0.030981 20.614636 -6.747723 -1.228432 -0.137525 -0.037282 0.000000 0.000000 0.000000 0.000000 0.000000 0.000000 0.000000 7.007992 -7.584492 -3.223781 72.664496 1.657377 -4.175449 0.559092 68.182958 -0.048471 -13.306757 12.276173 -1.498890 0.160341 -0.380357 -0.000000 0.000000 0.000000 0.000000 0.000000 0.000000 0.000000 
